<svg width="145" height="103.99999999999999" xmlns="http://www.w3.org/2000/svg">

 <g>
  <title>Layer 1</title>
  <path id="svg_1" d="m104.243,44.225c6.556,0.053 11.846,5.385 11.846,11.943c0,6.594 -5.349,11.941 -11.942,11.941c-6.131,0 -11.277,-4.65 -11.885,-10.748l-0.324,-3.266l3.213,0.664a5.833,5.833 0 0 0 6.768,-7.418l-0.96,-3.143l3.284,0.027z" fill="#282d33" clip-rule="evenodd" fill-rule="evenodd"/>
  <path id="svg_2" d="m102.951,76.738c-11.83,0 -21.42,-9.588 -21.42,-21.418s9.59,-21.416 21.42,-21.416c11.828,0 21.416,9.586 21.416,21.416c0,11.828 -9.588,21.418 -21.416,21.418m-62.011,0c-11.83,0 -21.418,-9.588 -21.418,-21.418s9.588,-21.416 21.418,-21.416c11.829,0 21.417,9.586 21.417,21.416c0,11.828 -9.588,21.418 -21.417,21.418zm88.371,-8.322a29.18,29.18 0 0 0 2.156,-5.803l4.355,0a4.031,4.031 0 0 0 4.018,-4.02l0,-5.973a4.028,4.028 0 0 0 -4.018,-4.018l-4.214,0a29.26,29.26 0 0 0 -2.441,-6.664a29.529,29.529 0 0 0 -14.588,-13.658c1.895,0.381 3.861,0.898 5.912,1.588c0,0 24.66,-9.07 23.596,-29.869c0,0 -12.418,7.977 -42.932,11.729c0,0 -27.322,2.502 -29.095,13.449c-1.774,-10.947 -29.095,-13.448 -29.095,-13.448c-30.513,-3.752 -42.931,-11.729 -42.931,-11.729c-1.064,20.799 23.594,29.869 23.594,29.869a49.775,49.775 0 0 1 5.49,-1.504a29.535,29.535 0 0 0 -13.875,12.604a29.268,29.268 0 0 0 -2.961,7.635l-3.985,0a4.03,4.03 0 0 0 -4.02,4.018l0,5.973c0,2.209 1.81,4.02 4.02,4.02l4.125,0a29.296,29.296 0 0 0 3.115,7.574c5.11,8.711 14.573,14.561 25.402,14.561c15.046,0 27.454,-11.293 29.214,-25.863l3.583,0c1.757,14.57 14.167,25.863 29.214,25.863c8.43,0 16.033,-3.545 21.398,-9.227a29.558,29.558 0 0 0 4.963,-7.107z" fill="#833171" clip-rule="evenodd" fill-rule="evenodd"/>
  <path id="svg_3" d="m41.87,44.213c6.556,0.053 11.845,5.385 11.845,11.941c0,6.594 -5.348,11.943 -11.941,11.943c-6.131,0 -11.277,-4.652 -11.884,-10.75l-0.325,-3.266l3.213,0.664a5.831,5.831 0 0 0 7.021,-5.711c0,-0.578 -0.084,-1.154 -0.253,-1.707l-0.96,-3.141l3.284,0.027zm42.497,39.471l-11.279,-10.329l-0.195,-0.177l-0.195,0.177l-11.279,10.329l11.474,18.959l11.474,-18.959z" fill="#282d33" clip-rule="evenodd" fill-rule="evenodd"/>
 </g>
</svg>
